<svg width="148" height="39" xmlns="http://www.w3.org/2000/svg">
 <!-- Created with Method Draw - http://github.com/duopixel/Method-Draw/ -->

 <g>
  <title>background</title>
  <rect fill="none" id="canvas_background" height="41" width="150" y="-1" x="-1"/>
  <g display="none" overflow="visible" y="0" x="0" height="100%" width="100%" id="canvasGrid">
   <rect fill="url(#gridpattern)" stroke-width="0" y="0" x="0" height="100%" width="100%"/>
  </g>
 </g>
 <g>
  <title>Layer 1</title>
  <!-- Generator: Sketch 52.6 (67491) - http://www.bohemiancoding.com/sketch -->
  <desc transform="matrix(1.1944221543968183,0,0,1.1944221543968183,0,0) ">Created with Sketch.</desc>
  <path fill="#ffffff" id="svg_20" d="m74.257713,17.38145l0,15.442672l-1.543623,0l0,-12.936034l-5.270376,12.936034l-1.389268,0l-5.292437,-12.891279l0,12.891279l-1.565672,0l0,-15.442672l1.830297,0l5.733465,13.495549l5.689367,-13.495549l1.808248,0zm8.445843,3.066153c1.22021,0 2.260301,0.320786 3.120332,0.96237c0.86002,0.641584 1.451737,1.492036 1.775162,2.551393l0,-3.357103l1.521574,0l0,12.219858l-1.521574,0l0,-3.357103c-0.323426,1.059357 -0.915142,1.909809 -1.775162,2.551393c-0.860032,0.641584 -1.900123,0.96237 -3.120332,0.96237c-1.087892,0 -2.061835,-0.253636 -2.921867,-0.760942c-0.86002,-0.507295 -1.52892,-1.234662 -2.006713,-2.182114c-0.477793,-0.947451 -0.716677,-2.05529 -0.716677,-3.323527c0,-1.283168 0.238884,-2.398459 0.716677,-3.345923c0.477793,-0.947451 1.143014,-1.67108 1.995688,-2.170922c0.852674,-0.499842 1.830297,-0.749751 2.932892,-0.749751zm0.39693,1.387596c-1.352516,0 -2.436717,0.436418 -3.252638,1.309278c-0.815922,0.872848 -1.223877,2.062743 -1.223877,3.569722c0,1.506967 0.407955,2.696862 1.223877,3.56971c0.815922,0.87286 1.900123,1.309278 3.252638,1.309278c0.852674,0 1.620807,-0.201427 2.304411,-0.604282c0.683616,-0.402855 1.220198,-0.97355 1.609782,-1.712121c0.389585,-0.738571 0.584371,-1.59275 0.584371,-2.562585c0,-0.969835 -0.194786,-1.824026 -0.584371,-2.562597c-0.389585,-0.738559 -0.926167,-1.309266 -1.609782,-1.712121c-0.683604,-0.402855 -1.451737,-0.604282 -2.304411,-0.604282zm10.320249,-3.804712c-0.338129,0 -0.613778,-0.096987 -0.826946,-0.290949c-0.213169,-0.193962 -0.319747,-0.44761 -0.319747,-0.760942c0,-0.328251 0.106578,-0.589364 0.319747,-0.783326c0.213169,-0.193962 0.488817,-0.290949 0.826946,-0.290949c0.338129,0 0.610099,0.096987 0.81591,0.290949c0.205823,0.193962 0.308722,0.455075 0.308722,0.783326c0,0.313333 -0.102899,0.56698 -0.308722,0.760942c-0.205811,0.193962 -0.477781,0.290949 -0.81591,0.290949zm-3.219565,19.180246l0.837971,0c0.558643,0 0.966598,-0.126812 1.223865,-0.380471c0.257279,-0.253647 0.385906,-0.693792 0.385906,-1.320458l0,-14.90554l1.543635,0l0,14.995062c0,1.999355 -0.999672,2.999015 -2.999051,2.999015l-0.992326,0l0,-1.387608zm12.591574,-5.528025c1.087892,0 1.999355,-0.276031 2.734426,-0.828081c0.735059,-0.552062 1.176088,-1.298086 1.323109,-2.238072l1.631831,0c-0.220526,1.298086 -0.830613,2.349966 -1.830297,3.155675c-0.999696,0.805709 -2.263979,1.208552 -3.792911,1.208552c-1.146705,0 -2.164747,-0.249909 -3.054173,-0.749751c-0.889426,-0.49983 -1.584055,-1.223471 -2.083896,-2.170922c-0.499842,-0.947451 -0.749763,-2.062755 -0.749763,-3.345911c0,-1.283168 0.249921,-2.398459 0.749763,-3.345923c0.499842,-0.947451 1.19447,-1.67108 2.083896,-2.170922c0.889426,-0.499842 1.907468,-0.749751 3.054173,-0.749751c1.1761,0 2.194142,0.249909 3.054173,0.749751c0.86002,0.499842 1.514217,1.167524 1.962603,2.00307c0.448398,0.835546 0.672579,1.745696 0.672579,2.730449c0,0.417773 -0.029395,0.798244 -0.088196,1.141414l-9.967417,0c0.014703,1.02952 0.224193,1.891164 0.628469,2.584968c0.404288,0.693804 0.929858,1.204826 1.576709,1.533077c0.646851,0.328251 1.345158,0.492377 2.094921,0.492377zm0.066159,-9.959414c-0.779169,0 -1.492168,0.164126 -2.139031,0.492377c-0.646851,0.328251 -1.172421,0.831819 -1.576697,1.510705c-0.404288,0.678886 -0.621135,1.525612 -0.65053,2.540201l8.51199,0c0.058813,-0.999672 -0.102899,-1.842671 -0.485138,-2.52901c-0.382227,-0.686351 -0.896772,-1.193646 -1.543623,-1.521897c-0.646851,-0.328251 -1.352504,-0.492377 -2.11697,-0.492377zm12.106436,-1.275691c1.308418,0 2.359533,0.350623 3.153406,1.051892c0.793873,0.701257 1.278999,1.648709 1.455415,2.842343l-1.477464,0c-0.088208,-0.790791 -0.407955,-1.443555 -0.959252,-1.958303c-0.551297,-0.51476 -1.290024,-0.772134 -2.216214,-0.772134c-0.793861,0 -1.414984,0.197689 -1.86337,0.593078c-0.448386,0.395402 -0.672579,0.921341 -0.672579,1.577844c0,0.492377 0.143331,0.887766 0.430004,1.186181c0.286673,0.298402 0.643184,0.52594 1.069521,0.682612c0.426337,0.15666 0.999672,0.317059 1.72004,0.481185c0.882069,0.208881 1.5914,0.4215 2.127994,0.637845c0.536594,0.216346 0.996005,0.555789 1.378232,1.018317c0.382239,0.46254 0.573347,1.089194 0.573347,1.879985c0,0.969835 -0.356499,1.764341 -1.069509,2.383541c-0.71301,0.6192 -1.657547,0.928795 -2.833659,0.928795c-1.381911,0 -2.5139,-0.346896 -3.395969,-1.0407c-0.882081,-0.693804 -1.403972,-1.64497 -1.565684,-2.853534l1.499525,0c0.088208,0.805709 0.433683,1.4622 1.036436,1.969495c0.602753,0.507307 1.418663,0.760954 2.447753,0.760954c0.764466,0 1.35985,-0.201427 1.786187,-0.604282c0.426337,-0.402855 0.639506,-0.925068 0.639506,-1.566652c0,-0.522213 -0.147009,-0.939986 -0.441028,-1.253319c-0.294031,-0.313333 -0.657888,-0.548323 -1.09157,-0.704996c-0.433683,-0.15666 -1.025399,-0.324513 -1.775174,-0.503556c-0.867365,-0.208892 -1.561994,-0.417773 -2.083884,-0.626666c-0.521903,-0.208881 -0.96661,-0.533405 -1.334134,-0.973562c-0.367536,-0.440157 -0.551297,-1.0407 -0.551297,-1.801642c0,-0.999672 0.360178,-1.805369 1.080534,-2.417116c0.720368,-0.611735 1.697979,-0.917603 2.932892,-0.917603zm13.010566,10.988911l0,1.387608l-1.433366,0c-1.161408,0 -2.028774,-0.279758 -2.60212,-0.839273c-0.573347,-0.559527 -0.86002,-1.503228 -0.86002,-2.831163l0,-7.184198l-1.830297,0l0,-1.365225l1.830297,0l0,-3.088537l1.565684,0l0,3.088537l3.307761,0l0,1.365225l-3.307761,0l0,7.206582c0,0.865395 0.154355,1.458473 0.463077,1.779259c0.308734,0.320798 0.852674,0.481185 1.631843,0.481185l1.234901,0zm2.183117,-14.457919c0,-0.328251 0.10659,-0.589364 0.319759,-0.783326c0.213169,-0.193962 0.488805,-0.290949 0.826934,-0.290949c0.338141,0 0.610099,0.096987 0.815922,0.290949c0.205823,0.193962 0.308722,0.455075 0.308722,0.783326c0,0.313333 -0.102899,0.56698 -0.308722,0.760942c-0.205823,0.193962 -0.477781,0.290949 -0.815922,0.290949c-0.338129,0 -0.613766,-0.096987 -0.826934,-0.290949c-0.213169,-0.193962 -0.319759,-0.44761 -0.319759,-0.760942zm1.918517,3.625668l0,12.219858l-1.565684,0l0,-12.219858l1.565684,0zm8.666357,-0.15666c1.528932,0 2.796895,0.410308 3.803936,1.230936c1.007029,0.820628 1.620807,1.909809 1.841321,3.267581l-1.609782,0c-0.161713,-0.969835 -0.610099,-1.734504 -1.345158,-2.294019c-0.735059,-0.559527 -1.639177,-0.839273 -2.712377,-0.839273c-0.779157,0 -1.495835,0.179044 -2.150043,0.537132c-0.654209,0.358088 -1.1761,0.906411 -1.565684,1.644982c-0.389573,0.738559 -0.584371,1.64497 -0.584371,2.719257c0,1.074275 0.194798,1.980686 0.584371,2.719245c0.389585,0.738571 0.911475,1.286894 1.565684,1.644982c0.654209,0.3581 1.370886,0.537144 2.150043,0.537144c1.0732,0 1.977318,-0.279758 2.712377,-0.839285c0.735059,-0.559515 1.183445,-1.324184 1.345158,-2.294019l1.609782,0c-0.220514,1.357771 -0.834292,2.446953 -1.841321,3.267581c-1.007041,0.820628 -2.275004,1.230936 -3.803936,1.230936c-1.146705,0 -2.164747,-0.249909 -3.054173,-0.749751c-0.889426,-0.49983 -1.584055,-1.223471 -2.083896,-2.170922c-0.499842,-0.947451 -0.749763,-2.062755 -0.749763,-3.345911c0,-1.283168 0.249921,-2.398459 0.749763,-3.345923c0.499842,-0.947451 1.19447,-1.67108 2.083896,-2.170922c0.889426,-0.499842 1.907468,-0.749751 3.054173,-0.749751z"/>
  <g transform="matrix(1.1944221543968183,0,0,1.1944221543968183,0,0) " id="svg_14">
   <rect rx="3" height="28" width="8" y="15.366922" x="10.207362" transform="rotate(12 7.384002685546881,14.841207504272457) translate(-6.8233537673950195,-14.525712966918945) " fill="#6493FF" id="svg_19"/>
   <path transform="rotate(-5 18.38400268554695,17.202823638916) translate(-17.823354721069336,-16.887325286865234) " fill="#3155A7" id="svg_18" d="m39.076408,22.830562l1.9563,0.27042c1.62065,0.22402 2.65519,1.26003 2.31071,2.31397l-6.10591,18.43432c-0.34447,1.05395 -2.27855,1.72438 -3.8992,1.50035l-1.95629,-0.27042c-1.62065,-0.22402 -2.65519,-1.26002 -2.31071,-2.31397l6.44693,-18.43196c0.34448,-1.05395 1.93753,-1.72673 3.55817,-1.50271z"/>
   <path transform="rotate(1 28.52983093261722,18.335727691650256) translate(-27.969181060791016,-18.020233154296875) " fill="#6493FF" id="svg_17" d="m57.939635,25.171989l1.95629,0.3895c1.62065,0.32267 2.65519,1.81487 2.31071,3.33292l-3.59006,16.4811c-0.34448,1.51805 -1.93753,2.48709 -3.55817,2.16442l-1.9563,-0.3895c-1.62065,-0.32267 -2.65519,-1.81486 -2.31071,-3.33291l3.59006,-16.48111c0.34448,-1.51804 1.93753,-2.48709 3.55818,-2.16442z"/>
   <path fill="#6493FF" id="svg_16" d="m9.393544,0.813306l14.20847,4.33045c1.02837,0.31343 1.62499,1.38377 1.35076,2.42328l-1.36012,5.15569l-18.5613,-5.62452l1.06271,-4.60279c0.3004,-1.30108 1.59866,-2.11229 2.89974,-1.81189c0.13676,0.03157 0.27051,0.075 0.39974,0.12978z"/>
   <circle r="3.5" cy="24.815496" cx="37.060654" fill="#6493FF" id="svg_15"/>
  </g>
 </g>
</svg>